<svg width="66" height="19" viewBox="0 0 66 19" fill="none" xmlns="http://www.w3.org/2000/svg">
<g id="slid 4">
<path id="Vector" d="M35 16C34.0317 16 33.1217 15.8161 32.27 15.4484C31.4183 15.0807 30.6775 14.582 30.0475 13.9525C29.4175 13.323 28.9189 12.5821 28.5516 11.73C28.1843 10.8779 28.0005 9.96786 28 9C27.9995 8.03213 28.1834 7.12213 28.5516 6.27C28.9198 5.41787 29.4184 4.67703 30.0475 4.0475C30.6766 3.41797 31.4174 2.91933 32.27 2.5516C33.1226 2.18387 34.0326 2 35 2C35.9674 2 36.8774 2.18387 37.73 2.5516C38.5826 2.91933 39.3234 3.41797 39.9525 4.0475C40.5816 4.67703 41.0804 5.41787 41.4491 6.27C41.8178 7.12213 42.0014 8.03213 42 9C41.9986 9.96786 41.8147 10.8779 41.4484 11.73C41.0821 12.5821 40.5834 13.323 39.9525 13.9525C39.3216 14.582 38.5807 15.0809 37.73 15.4491C36.8793 15.8173 35.9693 16.0009 35 16Z" fill="#BDBDBD"/>
<path id="Vector_2" d="M59 16C58.0317 16 57.1217 15.8161 56.27 15.4484C55.4183 15.0807 54.6775 14.582 54.0475 13.9525C53.4175 13.323 52.9189 12.5821 52.5516 11.73C52.1843 10.8779 52.0005 9.96786 52 9C51.9995 8.03213 52.1834 7.12213 52.5516 6.27C52.9198 5.41787 53.4184 4.67703 54.0475 4.0475C54.6766 3.41797 55.4174 2.91933 56.27 2.5516C57.1226 2.18387 58.0326 2 59 2C59.9674 2 60.8774 2.18387 61.73 2.5516C62.5826 2.91933 63.3234 3.41797 63.9525 4.0475C64.5816 4.67703 65.0804 5.41787 65.4491 6.27C65.8178 7.12213 66.0014 8.03213 66 9C65.9986 9.96786 65.8147 10.8779 65.4484 11.73C65.0821 12.5821 64.5834 13.323 63.9525 13.9525C63.3216 14.582 62.5807 15.0809 61.73 15.4491C60.8793 15.8173 59.9693 16.0009 59 16Z" fill="#BDBDBD"/>
<path id="Vector_3" d="M9.5 19C8.18583 19 6.95083 18.7505 5.795 18.2514C4.63917 17.7523 3.63375 17.0756 2.77875 16.2212C1.92375 15.3669 1.24703 14.3615 0.748601 13.205C0.250168 12.0485 0.000634535 10.8135 1.20253e-06 9.5C-0.00063213 8.18646 0.248901 6.95147 0.748601 5.795C1.2483 4.63853 1.92502 3.63312 2.77875 2.77875C3.63248 1.92438 4.6379 1.24767 5.795 0.7486C6.9521 0.249533 8.1871 0 9.5 0C10.8129 0 12.0479 0.249533 13.205 0.7486C14.3621 1.24767 15.3675 1.92438 16.2212 2.77875C17.075 3.63312 17.752 4.63853 18.2523 5.795C18.7527 6.95147 19.0019 8.18646 19 9.5C18.9981 10.8135 18.7486 12.0485 18.2514 13.205C17.7542 14.3615 17.0775 15.3669 16.2212 16.2212C15.365 17.0756 14.3596 17.7526 13.205 18.2523C12.0504 18.752 10.8154 19.0013 9.5 19Z" fill="#BDBDBD"/>
</g>
</svg>
